<?xml version="1.0" encoding="UTF-8"?>
<svg xmlns="http://www.w3.org/2000/svg" viewBox="100 100 600 600">
  <defs>
    <style>
      .cls-1 {
        fill: #303642;
      }

      .cls-2 {
        fill: none;
      }

      .cls-3 {
        fill: #06d889;
      }
    </style>
  </defs>
  <g id="Calque_3" data-name="Calque 3">
    <g id="SvgjsG21298">
      <rect class="cls-2"/>
      <g>
        <path class="cls-3" d="M327.19,235.69c-31.39,.71-58.22,21.26-80.5,61.56-23.39,45.36-34.93,95.79-34.73,151.28,.41,6.68,1.11,7.29,2.23,1.92,9.42-40.81,19.24-72.7,29.47-95.79,10.02-23.19,21.16-42.22,33.31-56.91,27.95-32.5,52.15-37.77,72.7-15.8,22.48,25.92,34.43,69.67,35.85,131.03-1.22,82.53-12.05,144.9-32.5,187.33-25.62,51.64-51.95,68.86-78.68,51.44-36.45-29.06-56.7-93.46-60.75-193-1.42-3.44-2.73-.91-3.75,7.59-1.92,10.33-3.24,21.67-4.05,33.72-3.04,54.07,4.15,99.94,21.47,137.61,17.72,35.74,41.31,53.87,70.78,54.48,31.79-.51,60.75-21.26,86.98-62.48,26.12-43.03,42.93-95.49,50.33-157.56,2.73-66.02-6.18-122.22-26.63-168.59-20.66-44.15-47.69-66.83-81.01-68.05"/>
        <path class="cls-3" d="M560.09,211.19c-16.3-26.73-47.49-39.79-93.56-38.98-50.93,2.43-100.45,17.62-148.44,45.57-5.57,3.65-5.77,4.66-.61,2.94,40.1-12.25,72.6-19.75,97.61-22.38,25.11-2.94,47.08-2.84,65.92,.41,42.12,8,58.83,26.33,50.02,55.08-11.24,32.4-43.14,64.6-95.59,96.6-72.1,40.2-131.53,62.07-178.42,65.51-57.62,3.65-85.56-10.53-83.84-42.43,7.19-46.17,52.76-95.89,136.9-149.25,2.23-2.94-.61-2.73-8.4,.61-9.92,3.54-20.35,8-31.29,13.37-48.3,24.4-84.55,53.57-108.45,87.39-22.07,33.21-26.02,62.78-11.85,88.5,16.3,27.24,48.81,41.92,97.61,44.05,50.33,1.11,104.19-10.53,161.61-35.24,58.53-30.68,102.78-66.43,132.65-107.33,27.95-40,34.02-74.73,18.43-104.19"/>
        <path class="cls-3" d="M697.8,400.64c14.99-27.54,10.73-61.06-13.06-100.55-27.64-42.93-65.51-78.17-113.71-105.71-5.97-3.04-6.89-2.73-2.84,.91,30.68,28.55,53.36,53.06,68.25,73.31,15.09,20.35,26.02,39.39,32.61,57.31,14.18,40.5,6.58,64.1-22.68,70.78-33.72,6.48-77.46-5.06-131.43-34.43-70.78-42.33-119.48-82.93-146.01-121.71-31.9-48.1-33.62-79.39-5.16-93.87,43.44-17.01,109.26-2.33,197.55,43.95,3.65,.41,2.13-1.92-4.76-6.99-8-6.89-17.11-13.67-27.24-20.45-45.26-29.67-88.6-46.38-129.91-50.22-39.79-2.53-67.34,8.81-82.63,34.02-15.49,27.74-11.95,63.29,10.63,106.52,24.2,44.15,61.26,84.96,111.28,122.32,55.79,35.34,108.95,55.79,159.28,61.16,48.6,4.15,81.82-7.9,99.44-36.15"/>
        <path class="cls-3" d="M602.62,614.6c31.39-.71,58.22-21.26,80.5-61.56,23.39-45.36,34.93-95.79,34.73-151.28-.41-6.68-1.11-7.29-2.23-1.92-9.42,40.81-19.24,72.7-29.47,95.79-10.02,23.19-21.16,42.22-33.31,56.91-27.95,32.5-52.15,37.77-72.7,15.8-22.48-25.92-34.43-69.67-35.85-131.03,1.22-82.53,12.05-144.9,32.5-187.33,25.62-51.64,51.95-68.86,78.68-51.44,36.45,29.06,56.7,93.46,60.75,193,1.42,3.44,2.73,.91,3.75-7.59,1.92-10.33,3.24-21.67,4.05-33.72,3.04-54.07-4.15-99.94-21.47-137.61-17.72-35.74-41.31-53.87-70.78-54.48-31.79,.51-60.75,21.26-86.98,62.48-26.12,43.03-42.93,95.49-50.33,157.56-2.73,66.02,6.18,122.22,26.63,168.59,20.66,44.15,47.69,66.83,81.01,68.05"/>
        <path class="cls-3" d="M232.01,449.65c-14.99,27.54-10.73,61.06,13.06,100.55,27.64,42.93,65.51,78.17,113.71,105.71,5.97,3.04,6.89,2.73,2.84-.91-30.68-28.55-53.36-53.06-68.25-73.31-15.09-20.35-26.02-39.39-32.61-57.31-14.18-40.5-6.58-64.1,22.68-70.78,33.72-6.48,77.46,5.06,131.43,34.43,70.78,42.33,119.48,82.93,146.01,121.71,31.9,48.1,33.62,79.39,5.16,93.87-43.44,17.01-109.26,2.33-197.55-43.95-3.65-.41-2.13,1.92,4.76,6.99,8,6.89,17.11,13.67,27.24,20.45,45.26,29.67,88.6,46.38,129.91,50.22,39.79,2.53,67.34-8.81,82.63-34.02,15.49-27.74,11.95-63.29-10.63-106.52-24.2-44.15-61.26-84.96-111.28-122.32-55.79-35.34-108.95-55.79-159.28-61.16-48.6-4.15-81.82,7.9-99.44,36.15"/>
        <path class="cls-3" d="M369.72,639.1c16.3,26.73,47.49,39.79,93.56,38.98,50.93-2.43,100.45-17.62,148.44-45.57,5.57-3.65,5.77-4.66,.61-2.94-40.1,12.25-72.6,19.75-97.61,22.38-25.11,2.94-47.08,2.84-65.92-.41-42.12-8-58.83-26.33-50.02-55.08,11.24-32.4,43.14-64.6,95.59-96.6,72.1-40.2,131.53-62.07,178.42-65.51,57.62-3.65,85.56,10.53,83.84,42.43-6.99,46.07-52.55,95.79-136.8,149.15-2.23,2.94,.61,2.73,8.4-.61,9.92-3.54,20.35-8,31.29-13.37,48.3-24.4,84.55-53.57,108.45-87.39,22.07-33.21,26.02-62.78,11.85-88.5-16.3-27.24-48.81-41.92-97.51-44.05-50.33-1.11-104.19,10.53-161.61,35.24-58.53,30.68-102.78,66.43-132.65,107.33-27.95,40-34.02,74.73-18.43,104.19"/>
      </g>
    </g>
  </g>

</svg>