<?xml version="1.0" encoding="UTF-8"?>
<!DOCTYPE svg PUBLIC "-//W3C//DTD SVG 1.1//EN" "http://www.w3.org/Graphics/SVG/1.1/DTD/svg11.dtd">
<svg xmlns="http://www.w3.org/2000/svg" version="1.1" width="635px" height="635px" style="shape-rendering:geometricPrecision; text-rendering:geometricPrecision; image-rendering:optimizeQuality; fill-rule:evenodd; clip-rule:evenodd" xmlns:xlink="http://www.w3.org/1999/xlink">
<g><path style="opacity:0.158" fill="#000000" d="M 409.5,264.5 C 412.178,263.091 414.844,263.257 417.5,265C 414.843,265.175 412.176,265.008 409.5,264.5 Z"/></g>
<g><path style="opacity:0.244" fill="#f26b21" d="M 115.5,274.5 C 113.517,274.157 112.183,274.824 111.5,276.5C 110.609,275.89 109.609,275.557 108.5,275.5C 110.655,273.466 112.988,273.133 115.5,274.5 Z"/></g>
<g><path style="opacity:0.899" fill="#000000" d="M 375.5,273.5 C 379.514,273.334 383.514,273.501 387.5,274C 388.456,277.394 388.789,280.894 388.5,284.5C 385.552,284.223 382.719,284.556 380,285.5C 378.801,288.726 378.301,292.059 378.5,295.5C 383.167,295.5 387.833,295.5 392.5,295.5C 390.903,278.928 398.236,271.762 414.5,274C 415.456,277.394 415.789,280.894 415.5,284.5C 412.552,284.223 409.719,284.556 407,285.5C 405.801,288.726 405.301,292.059 405.5,295.5C 408.5,295.5 411.5,295.5 414.5,295.5C 414.5,299.167 414.5,302.833 414.5,306.5C 411.552,306.777 408.719,306.444 406,305.5C 405.5,319.829 405.333,334.163 405.5,348.5C 401.167,348.5 396.833,348.5 392.5,348.5C 392.667,334.163 392.5,319.829 392,305.5C 387.667,306.833 383.333,306.833 379,305.5C 378.5,319.829 378.333,334.163 378.5,348.5C 374.167,348.5 369.833,348.5 365.5,348.5C 365.667,334.163 365.5,319.829 365,305.5C 362.959,306.423 360.792,306.756 358.5,306.5C 358.5,302.833 358.5,299.167 358.5,295.5C 360.833,295.5 363.167,295.5 365.5,295.5C 364.067,285.768 367.4,278.435 375.5,273.5 Z"/></g>
<g><path style="opacity:1" fill="#f37421" d="M 115.5,274.5 C 130.685,282.041 145.352,290.374 159.5,299.5C 160.562,300.575 160.562,301.575 159.5,302.5C 150.343,306.75 141.01,310.417 131.5,313.5C 128.298,309.092 125.632,304.425 123.5,299.5C 123.573,297.973 122.906,296.973 121.5,296.5C 119.357,290.88 116.69,285.547 113.5,280.5C 113.573,278.973 112.906,277.973 111.5,277.5C 111.5,277.167 111.5,276.833 111.5,276.5C 112.183,274.824 113.517,274.157 115.5,274.5 Z"/></g>
<g><path style="opacity:0.501" fill="#f26921" d="M 208.5,274.5 C 209.946,273.387 211.613,273.22 213.5,274C 215.426,274.422 216.426,275.589 216.5,277.5C 215.295,275.862 213.962,275.529 212.5,276.5C 211.817,274.824 210.483,274.157 208.5,274.5 Z"/></g>
<g><path style="opacity:1" fill="#f05422" d="M 208.5,274.5 C 210.483,274.157 211.817,274.824 212.5,276.5C 212.5,276.833 212.5,277.167 212.5,277.5C 211.094,277.973 210.427,278.973 210.5,280.5C 208.992,282.181 207.992,284.181 207.5,286.5C 205.076,289.008 203.41,292.008 202.5,295.5C 201.094,295.973 200.427,296.973 200.5,298.5C 200.672,299.492 200.338,300.158 199.5,300.5C 197.659,302.849 196.326,305.515 195.5,308.5C 194.094,308.973 193.427,309.973 193.5,311.5C 193.672,312.492 193.338,313.158 192.5,313.5C 190.379,313.675 188.379,313.341 186.5,312.5C 185.089,310.461 183.089,309.461 180.5,309.5C 176.937,308.718 173.603,307.384 170.5,305.5C 169.089,303.461 167.089,302.461 164.5,302.5C 163.167,302.5 162.5,301.833 162.5,300.5C 162.842,299.662 163.508,299.328 164.5,299.5C 166.027,299.573 167.027,298.906 167.5,297.5C 168.514,296.326 169.847,295.66 171.5,295.5C 173.027,295.573 174.027,294.906 174.5,293.5C 175.514,292.326 176.847,291.66 178.5,291.5C 180.027,291.573 181.027,290.906 181.5,289.5C 182.514,288.326 183.847,287.66 185.5,287.5C 187.027,287.573 188.027,286.906 188.5,285.5C 189.514,284.326 190.847,283.66 192.5,283.5C 194.027,283.573 195.027,282.906 195.5,281.5C 196.514,280.326 197.847,279.66 199.5,279.5C 201.027,279.573 202.027,278.906 202.5,277.5C 204.181,275.992 206.181,274.992 208.5,274.5 Z"/></g>
<g><path style="opacity:1" fill="#f05322" d="M 108.5,275.5 C 109.609,275.557 110.609,275.89 111.5,276.5C 111.5,276.833 111.5,277.167 111.5,277.5C 111.427,279.027 112.094,280.027 113.5,280.5C 116.69,285.547 119.357,290.88 121.5,296.5C 121.427,298.027 122.094,299.027 123.5,299.5C 125.632,304.425 128.298,309.092 131.5,313.5C 132.441,315.05 133.107,316.716 133.5,318.5C 134.079,321.331 135.412,323.664 137.5,325.5C 141.26,330.684 144.26,336.35 146.5,342.5C 146.427,344.027 147.094,345.027 148.5,345.5C 150.674,348.515 152.341,351.849 153.5,355.5C 153.427,357.027 154.094,358.027 155.5,358.5C 155.461,361.089 156.461,363.089 158.5,364.5C 159.674,365.514 160.34,366.847 160.5,368.5C 160.53,369.497 160.03,370.164 159,370.5C 157.403,369.115 155.57,368.449 153.5,368.5C 152.656,366.241 150.989,365.241 148.5,365.5C 148.027,364.094 147.027,363.427 145.5,363.5C 144.508,363.672 143.842,363.338 143.5,362.5C 143.027,361.094 142.027,360.427 140.5,360.5C 137.194,357.173 133.194,354.84 128.5,353.5C 126.516,350.836 123.849,349.169 120.5,348.5C 119.508,348.672 118.842,348.338 118.5,347.5C 118.027,346.094 117.027,345.427 115.5,345.5C 114.251,343.864 112.584,342.697 110.5,342C 108.859,340.871 107.859,339.371 107.5,337.5C 107.19,316.787 107.523,296.121 108.5,275.5 Z"/></g>
<g><path style="opacity:1" fill="#f37421" d="M 216.5,277.5 C 216.977,298.592 216.477,319.592 215,340.5C 199.582,349.793 184.082,358.959 168.5,368C 166.937,368.759 165.937,369.926 165.5,371.5C 164.351,371.209 163.684,370.376 163.5,369C 172.781,350.27 182.448,331.77 192.5,313.5C 193.338,313.158 193.672,312.492 193.5,311.5C 194.906,311.027 195.573,310.027 195.5,308.5C 198.375,306.751 199.708,304.085 199.5,300.5C 200.338,300.158 200.672,299.492 200.5,298.5C 201.906,298.027 202.573,297.027 202.5,295.5C 205.415,293.349 207.082,290.349 207.5,286.5C 207.992,284.181 208.992,282.181 210.5,280.5C 211.906,280.027 212.573,279.027 212.5,277.5C 212.5,277.167 212.5,276.833 212.5,276.5C 213.962,275.529 215.295,275.862 216.5,277.5 Z"/></g>
<g><path style="opacity:0.902" fill="#000000" d="M 276.5,276.5 C 287.712,276.18 295.879,280.847 301,290.5C 301.977,292.74 302.477,295.073 302.5,297.5C 298.154,297.666 293.821,297.499 289.5,297C 287.434,289.193 282.434,286.193 274.5,288C 268.842,289.829 267.008,293.663 269,299.5C 269.833,300.333 270.667,301.167 271.5,302C 279.325,304.608 286.991,307.608 294.5,311C 305.382,319.583 307.048,329.75 299.5,341.5C 289.352,349.799 278.018,351.633 265.5,347C 257.549,342.936 253.216,336.436 252.5,327.5C 257.167,327.5 261.833,327.5 266.5,327.5C 266.665,332.84 269.332,336.34 274.5,338C 278.594,338.767 282.594,338.434 286.5,337C 291.39,332.488 291.724,327.655 287.5,322.5C 280,319.052 272.333,315.885 264.5,313C 253.891,305.924 251.724,296.757 258,285.5C 263.02,279.906 269.186,276.906 276.5,276.5 Z"/></g>
<g><path style="opacity:0.918" fill="#f15f22" d="M 202.5,277.5 C 202.027,278.906 201.027,279.573 199.5,279.5C 199.973,278.094 200.973,277.427 202.5,277.5 Z"/></g>
<g><path style="opacity:1" fill="#f16221" d="M 111.5,277.5 C 112.906,277.973 113.573,278.973 113.5,280.5C 112.094,280.027 111.427,279.027 111.5,277.5 Z"/></g>
<g><path style="opacity:1" fill="#f26921" d="M 212.5,277.5 C 212.573,279.027 211.906,280.027 210.5,280.5C 210.427,278.973 211.094,277.973 212.5,277.5 Z"/></g>
<g><path style="opacity:0.999" fill="#f15b21" d="M 108.5,275.5 C 107.523,296.121 107.19,316.787 107.5,337.5C 107.167,337.5 106.833,337.5 106.5,337.5C 106.333,317.164 106.5,296.831 107,276.5C 107.383,275.944 107.883,275.611 108.5,275.5 Z"/></g>
<g><path style="opacity:0.914" fill="#f15f22" d="M 195.5,281.5 C 195.027,282.906 194.027,283.573 192.5,283.5C 192.973,282.094 193.973,281.427 195.5,281.5 Z"/></g>
<g><path style="opacity:0.914" fill="#f15f22" d="M 188.5,285.5 C 188.027,286.906 187.027,287.573 185.5,287.5C 185.973,286.094 186.973,285.427 188.5,285.5 Z"/></g>
<g><path style="opacity:0.914" fill="#f15f22" d="M 181.5,289.5 C 181.027,290.906 180.027,291.573 178.5,291.5C 178.973,290.094 179.973,289.427 181.5,289.5 Z"/></g>
<g><path style="opacity:0.922" fill="#f15e22" d="M 174.5,293.5 C 174.027,294.906 173.027,295.573 171.5,295.5C 171.973,294.094 172.973,293.427 174.5,293.5 Z"/></g>
<g><path style="opacity:1" fill="#f26d21" d="M 207.5,286.5 C 207.082,290.349 205.415,293.349 202.5,295.5C 203.41,292.008 205.076,289.008 207.5,286.5 Z"/></g>
<g><path style="opacity:0.896" fill="#000000" d="M 326.5,294.5 C 335.952,292.738 344.119,295.071 351,301.5C 351.667,302.833 352.333,304.167 353,305.5C 353.255,319.854 353.755,334.187 354.5,348.5C 350.5,348.5 346.5,348.5 342.5,348.5C 342.688,346.897 342.188,345.563 341,344.5C 331.401,351.406 322.067,351.073 313,343.5C 306.288,328.427 311.122,319.26 327.5,316C 331.821,315.501 336.154,315.334 340.5,315.5C 340.965,304.416 336.131,301.416 326,306.5C 325.598,307.872 325.098,309.205 324.5,310.5C 320.217,311.492 315.884,311.826 311.5,311.5C 312.681,302.326 317.681,296.66 326.5,294.5 Z M 330.5,324.5 C 334.226,324.177 337.893,324.511 341.5,325.5C 341.433,336.68 336.099,340.847 325.5,338C 321.295,331.455 322.961,326.955 330.5,324.5 Z"/></g>
<g><path style="opacity:0.905" fill="#000000" d="M 434.5,294.5 C 454.441,292.619 464.774,301.619 465.5,321.5C 463.64,345.193 451.307,353.693 428.5,347C 419.693,341.05 415.693,332.716 416.5,322C 415.99,308.38 421.99,299.213 434.5,294.5 Z M 436.5,305.5 C 443.445,303.775 448.278,306.108 451,312.5C 453,318.5 453,324.5 451,330.5C 448.724,337.751 443.89,340.251 436.5,338C 433.619,336.749 431.786,334.583 431,331.5C 428.79,324.032 429.123,316.699 432,309.5C 433.397,307.93 434.897,306.596 436.5,305.5 Z"/></g>
<g><path style="opacity:0.902" fill="#000000" d="M 466.5,295.5 C 471.179,295.334 475.845,295.501 480.5,296C 483.793,301.418 486.96,306.918 490,312.5C 492.915,307.002 496.081,301.668 499.5,296.5C 503.783,295.508 508.116,295.174 512.5,295.5C 507.995,304.033 502.995,312.367 497.5,320.5C 503.054,329.612 508.054,338.945 512.5,348.5C 507.786,348.827 503.12,348.493 498.5,347.5C 495.333,341.833 492.167,336.167 489,330.5C 486.229,336.541 483.062,342.375 479.5,348C 474.914,348.197 470.414,348.697 466,349.5C 470.583,340.356 475.749,331.356 481.5,322.5C 476.222,313.607 471.222,304.607 466.5,295.5 Z"/></g>
<g><path style="opacity:1" fill="#f26321" d="M 202.5,295.5 C 202.573,297.027 201.906,298.027 200.5,298.5C 200.427,296.973 201.094,295.973 202.5,295.5 Z"/></g>
<g><path style="opacity:1" fill="#f15f22" d="M 121.5,296.5 C 122.906,296.973 123.573,297.973 123.5,299.5C 122.094,299.027 121.427,298.027 121.5,296.5 Z"/></g>
<g><path style="opacity:0.918" fill="#f15e22" d="M 167.5,297.5 C 167.027,298.906 166.027,299.573 164.5,299.5C 164.973,298.094 165.973,297.427 167.5,297.5 Z"/></g>
<g><path style="opacity:1" fill="#f26a21" d="M 159.5,299.5 C 160.609,299.557 161.609,299.89 162.5,300.5C 162.5,301.833 163.167,302.5 164.5,302.5C 166.181,304.008 168.181,305.008 170.5,305.5C 173.603,307.384 176.937,308.718 180.5,309.5C 182.181,311.008 184.181,312.008 186.5,312.5C 188.379,313.341 190.379,313.675 192.5,313.5C 182.448,331.77 172.781,350.27 163.5,369C 163.684,370.376 164.351,371.209 165.5,371.5C 164.791,372.404 163.791,372.737 162.5,372.5C 162.34,370.847 161.674,369.514 160.5,368.5C 160.34,366.847 159.674,365.514 158.5,364.5C 158.008,362.181 157.008,360.181 155.5,358.5C 155.573,356.973 154.906,355.973 153.5,355.5C 152.341,351.849 150.674,348.515 148.5,345.5C 148.573,343.973 147.906,342.973 146.5,342.5C 144.26,336.35 141.26,330.684 137.5,325.5C 136.921,322.669 135.588,320.336 133.5,318.5C 133.107,316.716 132.441,315.05 131.5,313.5C 141.01,310.417 150.343,306.75 159.5,302.5C 160.562,301.575 160.562,300.575 159.5,299.5 Z"/></g>
<g><path style="opacity:1" fill="#f15d22" d="M 164.5,302.5 C 167.089,302.461 169.089,303.461 170.5,305.5C 168.181,305.008 166.181,304.008 164.5,302.5 Z"/></g>
<g><path style="opacity:1" fill="#f26c21" d="M 199.5,300.5 C 199.708,304.085 198.375,306.751 195.5,308.5C 196.326,305.515 197.659,302.849 199.5,300.5 Z"/></g>
<g><path style="opacity:1" fill="#f15c22" d="M 180.5,309.5 C 183.089,309.461 185.089,310.461 186.5,312.5C 184.181,312.008 182.181,311.008 180.5,309.5 Z"/></g>
<g><path style="opacity:1" fill="#f26321" d="M 195.5,308.5 C 195.573,310.027 194.906,311.027 193.5,311.5C 193.427,309.973 194.094,308.973 195.5,308.5 Z"/></g>
<g><path style="opacity:1" fill="#f15b22" d="M 133.5,318.5 C 135.588,320.336 136.921,322.669 137.5,325.5C 135.412,323.664 134.079,321.331 133.5,318.5 Z"/></g>
<g><path style="opacity:0.669" fill="#f16221" d="M 106.5,337.5 C 106.833,337.5 107.167,337.5 107.5,337.5C 107.859,339.371 108.859,340.871 110.5,342C 112.584,342.697 114.251,343.864 115.5,345.5C 110.548,344.875 107.548,342.209 106.5,337.5 Z"/></g>
<g><path style="opacity:1" fill="#f15e22" d="M 146.5,342.5 C 147.906,342.973 148.573,343.973 148.5,345.5C 147.094,345.027 146.427,344.027 146.5,342.5 Z"/></g>
<g><path style="opacity:0.494" fill="#f16122" d="M 115.5,345.5 C 117.027,345.427 118.027,346.094 118.5,347.5C 116.973,347.573 115.973,346.906 115.5,345.5 Z"/></g>
<g><path style="opacity:0.478" fill="#f16022" d="M 120.5,348.5 C 123.849,349.169 126.516,350.836 128.5,353.5C 125.489,352.331 122.822,350.664 120.5,348.5 Z"/></g>
<g><path style="opacity:0.698" fill="#f27021" d="M 216.5,277.5 C 217.663,298.329 217.829,319.329 217,340.5C 200.193,351.485 183.026,361.818 165.5,371.5C 165.937,369.926 166.937,368.759 168.5,368C 184.082,358.959 199.582,349.793 215,340.5C 216.477,319.592 216.977,298.592 216.5,277.5 Z"/></g>
<g><path style="opacity:0.618" fill="#ef4d22" d="M 352.5,354.5 C 357.322,354.561 357.655,355.727 353.5,358C 354.793,358.49 356.127,358.657 357.5,358.5C 357.5,359.5 357.5,360.5 357.5,361.5C 348.167,362.167 348.167,362.833 357.5,363.5C 357.5,364.5 357.5,365.5 357.5,366.5C 355.167,366.5 352.833,366.5 350.5,366.5C 350.5,367.5 350.5,368.5 350.5,369.5C 352.833,369.5 355.167,369.5 357.5,369.5C 357.5,370.5 357.5,371.5 357.5,372.5C 353.833,372.5 350.167,372.5 346.5,372.5C 346.5,367.833 346.5,363.167 346.5,358.5C 349.522,358.658 351.522,357.325 352.5,354.5 Z"/></g>
<g><path style="opacity:0.384" fill="#f15f22" d="M 128.5,353.5 C 133.194,354.84 137.194,357.173 140.5,360.5C 136.164,358.668 132.164,356.335 128.5,353.5 Z"/></g>
<g><path style="opacity:1" fill="#f15e22" d="M 153.5,355.5 C 154.906,355.973 155.573,356.973 155.5,358.5C 154.094,358.027 153.427,357.027 153.5,355.5 Z"/></g>
<g><path style="opacity:0.627" fill="#ef4d22" d="M 265.5,358.5 C 266.833,358.5 268.167,358.5 269.5,358.5C 269.5,363.167 269.5,367.833 269.5,372.5C 268.167,372.5 266.833,372.5 265.5,372.5C 265.5,367.833 265.5,363.167 265.5,358.5 Z"/></g>
<g><path style="opacity:0.669" fill="#ef4d22" d="M 286.5,358.5 C 288.199,358.34 289.866,358.506 291.5,359C 293.377,361.251 294.877,363.751 296,366.5C 296.497,363.854 296.664,361.187 296.5,358.5C 297.5,358.5 298.5,358.5 299.5,358.5C 299.5,363.167 299.5,367.833 299.5,372.5C 298.127,372.657 296.793,372.49 295.5,372C 294.126,369.417 292.626,366.917 291,364.5C 290.503,367.146 290.336,369.813 290.5,372.5C 289.167,372.5 287.833,372.5 286.5,372.5C 286.5,367.833 286.5,363.167 286.5,358.5 Z"/></g>
<g><path style="opacity:0.673" fill="#ef4d22" d="M 320.5,358.5 C 322.857,358.337 325.19,358.503 327.5,359C 329.037,360.11 329.703,361.61 329.5,363.5C 326.999,362.174 324.332,361.674 321.5,362C 320.409,364.064 320.242,366.231 321,368.5C 322.965,369.885 324.798,369.718 326.5,368C 325.207,367.51 323.873,367.343 322.5,367.5C 322.5,366.5 322.5,365.5 322.5,364.5C 324.833,364.5 327.167,364.5 329.5,364.5C 329.5,367.167 329.5,369.833 329.5,372.5C 320.247,375.06 316.08,371.727 317,362.5C 317.69,360.65 318.856,359.316 320.5,358.5 Z"/></g>
<g><path style="opacity:0.636" fill="#ef4d22" d="M 373.5,358.5 C 377.956,358.648 380.79,360.981 382,365.5C 382.497,363.19 382.663,360.857 382.5,358.5C 383.833,358.5 385.167,358.5 386.5,358.5C 386.5,363.167 386.5,367.833 386.5,372.5C 385.127,372.657 383.793,372.49 382.5,372C 380.623,369.749 379.123,367.249 378,364.5C 377.503,367.146 377.336,369.813 377.5,372.5C 376.167,372.5 374.833,372.5 373.5,372.5C 373.5,367.833 373.5,363.167 373.5,358.5 Z"/></g>
<g><path style="opacity:0.624" fill="#ef4d22" d="M 403.5,358.5 C 404.833,358.5 406.167,358.5 407.5,358.5C 407.5,363.167 407.5,367.833 407.5,372.5C 406.167,372.5 404.833,372.5 403.5,372.5C 403.5,367.833 403.5,363.167 403.5,358.5 Z"/></g>
<g><path style="opacity:0.712" fill="#ef4d22" d="M 425.5,358.5 C 428.833,358.5 432.167,358.5 435.5,358.5C 435.5,359.5 435.5,360.5 435.5,361.5C 426.167,362.167 426.167,362.833 435.5,363.5C 435.5,364.5 435.5,365.5 435.5,366.5C 433.167,366.5 430.833,366.5 428.5,366.5C 428.5,367.5 428.5,368.5 428.5,369.5C 430.833,369.5 433.167,369.5 435.5,369.5C 435.5,370.5 435.5,371.5 435.5,372.5C 432.167,372.5 428.833,372.5 425.5,372.5C 425.5,367.833 425.5,363.167 425.5,358.5 Z"/></g>
<g><path style="opacity:0.713" fill="#ef4d22" d="M 452.5,358.5 C 455.518,358.335 458.518,358.502 461.5,359C 462,359.5 462.5,360 463,360.5C 462.743,364.414 462.909,368.414 463.5,372.5C 462.167,372.5 460.833,372.5 459.5,372.5C 460.401,368.759 459.068,366.759 455.5,366.5C 455.5,368.5 455.5,370.5 455.5,372.5C 454.5,372.5 453.5,372.5 452.5,372.5C 452.5,367.833 452.5,363.167 452.5,358.5 Z M 455.5,361.5 C 457.429,361.231 459.095,361.731 460.5,363C 459.667,363.167 458.833,363.333 458,363.5C 456.624,363.316 455.791,362.649 455.5,361.5 Z"/></g>
<g><path style="opacity:0.633" fill="#ef4d22" d="M 480.5,358.5 C 481.833,358.5 483.167,358.5 484.5,358.5C 484.5,363.167 484.5,367.833 484.5,372.5C 483.167,372.5 481.833,372.5 480.5,372.5C 480.5,367.833 480.5,363.167 480.5,358.5 Z"/></g>
<g><path style="opacity:0.65" fill="#ef4d22" d="M 501.5,358.5 C 505.167,358.5 508.833,358.5 512.5,358.5C 512.5,359.5 512.5,360.5 512.5,361.5C 510.076,361.192 507.743,361.526 505.5,362.5C 507.396,363.466 509.396,363.799 511.5,363.5C 511.5,364.5 511.5,365.5 511.5,366.5C 509.5,366.5 507.5,366.5 505.5,366.5C 505.5,367.5 505.5,368.5 505.5,369.5C 507.833,369.5 510.167,369.5 512.5,369.5C 512.5,370.5 512.5,371.5 512.5,372.5C 508.833,372.5 505.167,372.5 501.5,372.5C 501.5,367.833 501.5,363.167 501.5,358.5 Z"/></g>
<g><path style="opacity:1" fill="#f15c22" d="M 155.5,358.5 C 157.008,360.181 158.008,362.181 158.5,364.5C 156.461,363.089 155.461,361.089 155.5,358.5 Z"/></g>
<g><path style="opacity:0.431" fill="#f16222" d="M 140.5,360.5 C 142.027,360.427 143.027,361.094 143.5,362.5C 141.973,362.573 140.973,361.906 140.5,360.5 Z"/></g>
<g><path style="opacity:0.416" fill="#f16222" d="M 145.5,363.5 C 147.027,363.427 148.027,364.094 148.5,365.5C 146.973,365.573 145.973,364.906 145.5,363.5 Z"/></g>
<g><path style="opacity:0.392" fill="#f15f22" d="M 148.5,365.5 C 150.989,365.241 152.656,366.241 153.5,368.5C 151.566,367.89 149.899,366.89 148.5,365.5 Z"/></g>
<g><path style="opacity:0.38" fill="#f15f22" d="M 153.5,368.5 C 155.57,368.449 157.403,369.115 159,370.5C 160.03,370.164 160.53,369.497 160.5,368.5C 161.674,369.514 162.34,370.847 162.5,372.5C 158.835,372.498 155.835,371.165 153.5,368.5 Z"/></g>
</svg>
