<?xml version="1.0" encoding="UTF-8"?>
<svg xmlns="http://www.w3.org/2000/svg" viewBox="0 0 3177.78 853.6">
  <defs>
    <style>
      .cls-1 {
        fill: #303642;
      }

      .cls-2 {
        fill: none;
      }

      .cls-3 {
        fill: #06d889;
      }
    </style>
  </defs>
  <g id="Calque_3" data-name="Calque 3">
    <g id="SvgjsG21298">
      <rect class="cls-2" x="101.39" y="74.39" width="710.83" height="710.83"/>
      <g>
        <path class="cls-3" d="M327.19,235.69c-31.39,.71-58.22,21.26-80.5,61.56-23.39,45.36-34.93,95.79-34.73,151.28,.41,6.68,1.11,7.29,2.23,1.92,9.42-40.81,19.24-72.7,29.47-95.79,10.02-23.19,21.16-42.22,33.31-56.91,27.95-32.5,52.15-37.77,72.7-15.8,22.48,25.92,34.43,69.67,35.85,131.03-1.22,82.53-12.05,144.9-32.5,187.33-25.62,51.64-51.95,68.86-78.68,51.44-36.45-29.06-56.7-93.46-60.75-193-1.42-3.44-2.73-.91-3.75,7.59-1.92,10.33-3.24,21.67-4.05,33.72-3.04,54.07,4.15,99.94,21.47,137.61,17.72,35.74,41.31,53.87,70.78,54.48,31.79-.51,60.75-21.26,86.98-62.48,26.12-43.03,42.93-95.49,50.33-157.56,2.73-66.02-6.18-122.22-26.63-168.59-20.66-44.15-47.69-66.83-81.01-68.05"/>
        <path class="cls-3" d="M560.09,211.19c-16.3-26.73-47.49-39.79-93.56-38.98-50.93,2.43-100.45,17.62-148.44,45.57-5.57,3.65-5.77,4.66-.61,2.94,40.1-12.25,72.6-19.75,97.61-22.38,25.11-2.94,47.08-2.84,65.92,.41,42.12,8,58.83,26.33,50.02,55.08-11.24,32.4-43.14,64.6-95.59,96.6-72.1,40.2-131.53,62.07-178.42,65.51-57.62,3.65-85.56-10.53-83.84-42.43,7.19-46.17,52.76-95.89,136.9-149.25,2.23-2.94-.61-2.73-8.4,.61-9.92,3.54-20.35,8-31.29,13.37-48.3,24.4-84.55,53.57-108.45,87.39-22.07,33.21-26.02,62.78-11.85,88.5,16.3,27.24,48.81,41.92,97.61,44.05,50.33,1.11,104.19-10.53,161.61-35.24,58.53-30.68,102.78-66.43,132.65-107.33,27.95-40,34.02-74.73,18.43-104.19"/>
        <path class="cls-3" d="M697.8,400.64c14.99-27.54,10.73-61.06-13.06-100.55-27.64-42.93-65.51-78.17-113.71-105.71-5.97-3.04-6.89-2.73-2.84,.91,30.68,28.55,53.36,53.06,68.25,73.31,15.09,20.35,26.02,39.39,32.61,57.31,14.18,40.5,6.58,64.1-22.68,70.78-33.72,6.48-77.46-5.06-131.43-34.43-70.78-42.33-119.48-82.93-146.01-121.71-31.9-48.1-33.62-79.39-5.16-93.87,43.44-17.01,109.26-2.33,197.55,43.95,3.65,.41,2.13-1.92-4.76-6.99-8-6.89-17.11-13.67-27.24-20.45-45.26-29.67-88.6-46.38-129.91-50.22-39.79-2.53-67.34,8.81-82.63,34.02-15.49,27.74-11.95,63.29,10.63,106.52,24.2,44.15,61.26,84.96,111.28,122.32,55.79,35.34,108.95,55.79,159.28,61.16,48.6,4.15,81.82-7.9,99.44-36.15"/>
        <path class="cls-3" d="M602.62,614.6c31.39-.71,58.22-21.26,80.5-61.56,23.39-45.36,34.93-95.79,34.73-151.28-.41-6.68-1.11-7.29-2.23-1.92-9.42,40.81-19.24,72.7-29.47,95.79-10.02,23.19-21.16,42.22-33.31,56.91-27.95,32.5-52.15,37.77-72.7,15.8-22.48-25.92-34.43-69.67-35.85-131.03,1.22-82.53,12.05-144.9,32.5-187.33,25.62-51.64,51.95-68.86,78.68-51.44,36.45,29.06,56.7,93.46,60.75,193,1.42,3.44,2.73,.91,3.75-7.59,1.92-10.33,3.24-21.67,4.05-33.72,3.04-54.07-4.15-99.94-21.47-137.61-17.72-35.74-41.31-53.87-70.78-54.48-31.79,.51-60.75,21.26-86.98,62.48-26.12,43.03-42.93,95.49-50.33,157.56-2.73,66.02,6.18,122.22,26.63,168.59,20.66,44.15,47.69,66.83,81.01,68.05"/>
        <path class="cls-3" d="M232.01,449.65c-14.99,27.54-10.73,61.06,13.06,100.55,27.64,42.93,65.51,78.17,113.71,105.71,5.97,3.04,6.89,2.73,2.84-.91-30.68-28.55-53.36-53.06-68.25-73.31-15.09-20.35-26.02-39.39-32.61-57.31-14.18-40.5-6.58-64.1,22.68-70.78,33.72-6.48,77.46,5.06,131.43,34.43,70.78,42.33,119.48,82.93,146.01,121.71,31.9,48.1,33.62,79.39,5.16,93.87-43.44,17.01-109.26,2.33-197.55-43.95-3.65-.41-2.13,1.92,4.76,6.99,8,6.89,17.11,13.67,27.24,20.45,45.26,29.67,88.6,46.38,129.91,50.22,39.79,2.53,67.34-8.81,82.63-34.02,15.49-27.74,11.95-63.29-10.63-106.52-24.2-44.15-61.26-84.96-111.28-122.32-55.79-35.34-108.95-55.79-159.28-61.16-48.6-4.15-81.82,7.9-99.44,36.15"/>
        <path class="cls-3" d="M369.72,639.1c16.3,26.73,47.49,39.79,93.56,38.98,50.93-2.43,100.45-17.62,148.44-45.57,5.57-3.65,5.77-4.66,.61-2.94-40.1,12.25-72.6,19.75-97.61,22.38-25.11,2.94-47.08,2.84-65.92-.41-42.12-8-58.83-26.33-50.02-55.08,11.24-32.4,43.14-64.6,95.59-96.6,72.1-40.2,131.53-62.07,178.42-65.51,57.62-3.65,85.56,10.53,83.84,42.43-6.99,46.07-52.55,95.79-136.8,149.15-2.23,2.94,.61,2.73,8.4-.61,9.92-3.54,20.35-8,31.29-13.37,48.3-24.4,84.55-53.57,108.45-87.39,22.07-33.21,26.02-62.78,11.85-88.5-16.3-27.24-48.81-41.92-97.51-44.05-50.33-1.11-104.19,10.53-161.61,35.24-58.53,30.68-102.78,66.43-132.65,107.33-27.95,40-34.02,74.73-18.43,104.19"/>
      </g>
    </g>
  </g>
  <g id="Calque_2" data-name="Calque 2">
    <g>
      <path class="cls-3" d="M1851.88,461.14h44.38l-16.09,42.76-28.3-.7v75.64h-40.88v-75.64h-156.02v-45.16l138.3-174.23h58.59v177.33Zm-42.49-128.29l-100.66,128.29h100.83l.17-128.29h-.34Z"/>
      <path class="cls-3" d="M2094.87,578.84v-126.72s-40.05-47.29-53.85-67.78c-8.43-12.1-26.72-40.48-38.13-62.04-10.45-19.74-17.09-36.14-17.09-36.14h48.29l5.94,13.07c16.55,44.74,76.02,115.61,76.02,115.61l29.77-35.3c15.28-22.17,17.7-25.9,28.13-42.86l24.06-50.52h48.29s-24.64,49.95-30.45,60.39c-5.81,10.44-18.36,29.32-28.33,43.32-9.97,14-50.29,62.24-50.29,62.24v126.72h-42.37Z"/>
      <path class="cls-3" d="M2485.52,588.35c-43.36,0-80.17-14.96-111.14-44.49-30.97-29.92-46.28-66.54-46.28-109.85,0-28.74,7.29-54.73,21.5-78.74,14.58-24.02,33.89-42.52,57.94-55.51,24.05-13.39,49.92-20.08,77.98-20.08,43.36,0,80.17,14.96,111.14,44.88,30.97,29.92,46.28,66.54,46.28,109.45s-15.67,79.92-46.64,109.85c-30.97,29.53-68.14,44.49-110.77,44.49Zm-80.53-78.74c22.23,20.87,49.19,31.5,80.53,31.5s57.94-10.63,80.17-31.5c22.23-20.87,33.52-46.06,33.52-75.59s-11.3-54.73-33.52-75.59c-22.23-20.87-48.83-31.5-80.17-31.5s-58.3,10.63-80.53,31.5c-22.23,20.87-33.16,46.06-33.16,75.59s10.93,54.73,33.16,75.59Z"/>
      <path class="cls-3" d="M2751.6,437.27v-151.1h44.93v150.34c0,28.76,1.06,62.22,19.23,82.54,18.16,20.33,43.78,21.77,69.48,21.77s55.22-4.98,73.38-25.3c18.16-20.33,16.02-50.92,16.02-79.68v-149.67h44.24v151.1c0,41.04-4.57,81.48-30.96,111.01-26.04,29.15-66.02,38.55-102.69,38.55s-78.5-12.66-104.89-41.81c-26.04-29.53-28.75-66.73-28.75-107.76Z"/>
    </g>
  </g>
  <g id="Calque_4" data-name="Calque 4">
    <g>
      <path class="cls-1" d="M1165.04,321.48c29.56,29.36,44.35,64.82,44.35,106.77s-14.1,75.5-42.28,104.48h42.28v45.76c-24.41,0-42.28-.76-52.94-2.29-10.66-1.53-22-5.34-34.72-11.44-19.6,8.77-39.88,12.97-60.85,12.97-40.91,0-75.63-14.49-104.16-43.09-29.57-29.36-44.35-64.82-44.35-106.39s14.78-77.41,44.35-106.77c28.88-28.6,63.6-42.71,104.16-42.71s75.29,14.11,104.16,42.71Zm-180.14,179.98c20.97,20.21,46.41,30.51,75.98,30.51s54.66-10.3,75.63-30.51c20.97-20.21,31.63-44.61,31.63-73.21s-10.66-53-31.63-73.21c-20.97-20.21-46.07-30.51-75.63-30.51s-55,10.3-75.98,30.51c-20.97,20.21-31.28,44.61-31.28,73.21s10.31,53,31.28,73.21Z"/>
      <path class="cls-1" d="M1511.82,577.74l-94.98-108.72h-75.04v108.72h-40.56V283.81h173.06c22.98,0,42.59,9,58.81,27.37,16.56,18,24.67,39.74,24.67,65.23s-8.11,47.99-24.67,65.98c-16.56,17.62-37.18,26.62-61.85,26.62l94.64,108.72h-54.08Zm-170.01-153.71h132.5c11.83,0,21.63-4.5,30.08-13.87,8.45-9.37,12.84-20.62,12.84-33.74s-4.39-24.37-12.84-33.74c-8.45-9.37-18.25-13.87-30.08-13.87h-132.5v95.23Z"/>
    </g>
  </g>
</svg>